<svg width="32" height="26" viewBox="0 0 32 26" fill="none" xmlns="http://www.w3.org/2000/svg">
<path fill-rule="evenodd" clip-rule="evenodd" d="M5.71552 24.6627C5.14709 25.2192 4.22977 25.2234 3.65777 24.6634C3.08974 24.1074 3.08948 23.2061 3.65849 22.6491L5.70491 20.6459C5.28503 20.3471 4.87734 20.0308 4.4828 19.6981C1.80948 17.4437 0 14.5947 0 12.5817C0 10.5684 1.80663 7.71932 4.47717 5.46566C7.63417 2.80148 11.6362 1.08173 16 1.08173C18.7676 1.08173 21.3896 1.83758 23.7424 2.98917L26.2845 0.500711C26.8529 -0.0557213 27.7702 -0.0599111 28.3422 0.500011C28.9103 1.05606 28.9105 1.95734 28.3415 2.51433L26.3004 4.5124C26.7203 4.81098 27.1279 5.12709 27.5224 5.45965C30.1946 7.71275 32 10.5619 32 12.5817C32 14.6012 30.1917 17.4502 27.5167 19.7041C24.3595 22.3643 20.3582 23.9725 16 23.9725C13.2357 23.9725 10.6149 23.3243 8.26164 22.1704L5.71552 24.6627ZM15.9995 21.5C19.6228 21.5 22.9651 20.0144 25.6184 17.7787C27.7144 16.0127 29.0904 13.8448 29.0904 12.8146C29.0904 11.7829 27.7169 9.61539 25.6233 7.85019C25.1723 7.46987 24.7012 7.11539 24.2121 6.78896L19.9379 10.973C20.2105 11.5306 20.3631 12.1552 20.3631 12.8146C20.3631 15.1737 18.4095 17.0862 15.9995 17.0862C15.3258 17.0862 14.6878 16.9367 14.1182 16.6699L10.4536 20.2571C12.1785 20.9673 14.0484 21.5 15.9995 21.5ZM12.0616 14.6562C11.789 14.0986 11.6364 13.4741 11.6364 12.8146C11.6364 10.4555 13.59 8.54309 16 8.54309C16.6737 8.54309 17.3117 8.69252 17.8813 8.95938L21.5492 5.36889C19.8247 4.66076 17.9539 4.00002 16 4.00002C12.3719 4.00002 9.02963 5.61656 6.37666 7.85539C4.28422 9.62119 2.90909 11.7898 2.90909 12.8146C2.90909 13.8379 4.28668 16.0069 6.38154 17.7735C6.83269 18.154 7.30367 18.5086 7.79249 18.8353L12.0616 14.6562Z" fill="#8A8EA7"/>
</svg>
