<svg width="10" height="11" viewBox="0 0 10 11" fill="none" xmlns="http://www.w3.org/2000/svg">
<g id="icon-wrapper">
<g id="Union">
<path fill-rule="evenodd" clip-rule="evenodd" d="M8.65833 1.84047C8.68743 1.86949 8.71052 1.90398 8.72628 1.94194C8.74203 1.97991 8.75014 2.02061 8.75014 2.06172C8.75014 2.10282 8.74203 2.14352 8.72628 2.18149C8.71052 2.21945 8.68743 2.25394 8.65833 2.28297L1.78333 9.15797C1.72465 9.21664 1.64507 9.24961 1.56208 9.24961C1.4791 9.24961 1.39951 9.21664 1.34083 9.15797C1.28215 9.09929 1.24919 9.0197 1.24919 8.93672C1.24919 8.85373 1.28215 8.77414 1.34083 8.71547L8.21583 1.84047C8.24486 1.81136 8.27935 1.78827 8.31731 1.77252C8.35528 1.75677 8.39598 1.74866 8.43708 1.74866C8.47819 1.74866 8.51889 1.75677 8.55685 1.77252C8.59482 1.78827 8.6293 1.81136 8.65833 1.84047Z" fill="#6C757D"/>
<path fill-rule="evenodd" clip-rule="evenodd" d="M1.34083 1.84047C1.31173 1.86949 1.28864 1.90398 1.27289 1.94194C1.25713 1.97991 1.24902 2.02061 1.24902 2.06172C1.24902 2.10282 1.25713 2.14352 1.27289 2.18149C1.28864 2.21945 1.31173 2.25394 1.34083 2.28297L8.21583 9.15797C8.27451 9.21664 8.3541 9.24961 8.43708 9.24961C8.52007 9.24961 8.59965 9.21664 8.65833 9.15797C8.71701 9.09929 8.74998 9.0197 8.74998 8.93672C8.74998 8.85373 8.71701 8.77414 8.65833 8.71547L1.78333 1.84047C1.7543 1.81136 1.71982 1.78827 1.68185 1.77252C1.64389 1.75677 1.60319 1.74866 1.56208 1.74866C1.52098 1.74866 1.48028 1.75677 1.44231 1.77252C1.40435 1.78827 1.36986 1.81136 1.34083 1.84047Z" fill="#6C757D"/>
</g>
</g>
</svg>
