<svg width="14" height="14" viewBox="0 0 14 14" fill="none" xmlns="http://www.w3.org/2000/svg">
<g id="icon-wrapper">
<g id="Union">
<path d="M4.5 5.25C4.61603 5.25 4.72731 5.29609 4.80936 5.37814C4.89141 5.46019 4.9375 5.57147 4.9375 5.6875V10.9375C4.9375 11.0535 4.89141 11.1648 4.80936 11.2469C4.72731 11.3289 4.61603 11.375 4.5 11.375C4.38397 11.375 4.27269 11.3289 4.19064 11.2469C4.10859 11.1648 4.0625 11.0535 4.0625 10.9375V5.6875C4.0625 5.57147 4.10859 5.46019 4.19064 5.37814C4.27269 5.29609 4.38397 5.25 4.5 5.25ZM6.6875 5.25C6.80353 5.25 6.91481 5.29609 6.99686 5.37814C7.07891 5.46019 7.125 5.57147 7.125 5.6875V10.9375C7.125 11.0535 7.07891 11.1648 6.99686 11.2469C6.91481 11.3289 6.80353 11.375 6.6875 11.375C6.57147 11.375 6.46019 11.3289 6.37814 11.2469C6.29609 11.1648 6.25 11.0535 6.25 10.9375V5.6875C6.25 5.57147 6.29609 5.46019 6.37814 5.37814C6.46019 5.29609 6.57147 5.25 6.6875 5.25ZM9.3125 5.6875C9.3125 5.57147 9.26641 5.46019 9.18436 5.37814C9.10231 5.29609 8.99103 5.25 8.875 5.25C8.75897 5.25 8.64769 5.29609 8.56564 5.37814C8.48359 5.46019 8.4375 5.57147 8.4375 5.6875V10.9375C8.4375 11.0535 8.48359 11.1648 8.56564 11.2469C8.64769 11.3289 8.75897 11.375 8.875 11.375C8.99103 11.375 9.10231 11.3289 9.18436 11.2469C9.26641 11.1648 9.3125 11.0535 9.3125 10.9375V5.6875Z" fill="#DC3545"/>
<path fill-rule="evenodd" clip-rule="evenodd" d="M12.375 3.0625C12.375 3.29456 12.2828 3.51712 12.1187 3.68122C11.9546 3.84531 11.7321 3.9375 11.5 3.9375H11.0625V11.8125C11.0625 12.2766 10.8781 12.7217 10.5499 13.0499C10.2217 13.3781 9.77663 13.5625 9.3125 13.5625H4.0625C3.59837 13.5625 3.15325 13.3781 2.82506 13.0499C2.49687 12.7217 2.3125 12.2766 2.3125 11.8125V3.9375H1.875C1.64294 3.9375 1.42038 3.84531 1.25628 3.68122C1.09219 3.51712 1 3.29456 1 3.0625V2.1875C1 1.95544 1.09219 1.73288 1.25628 1.56878C1.42038 1.40469 1.64294 1.3125 1.875 1.3125H4.9375C4.9375 1.08044 5.02969 0.857876 5.19378 0.693782C5.35788 0.529687 5.58044 0.4375 5.8125 0.4375H7.5625C7.79456 0.4375 8.01712 0.529687 8.18122 0.693782C8.34531 0.857876 8.4375 1.08044 8.4375 1.3125H11.5C11.7321 1.3125 11.9546 1.40469 12.1187 1.56878C12.2828 1.73288 12.375 1.95544 12.375 2.1875V3.0625ZM3.29075 3.9375L3.1875 3.98913V11.8125C3.1875 12.0446 3.27969 12.2671 3.44378 12.4312C3.60788 12.5953 3.83044 12.6875 4.0625 12.6875H9.3125C9.54457 12.6875 9.76712 12.5953 9.93122 12.4312C10.0953 12.2671 10.1875 12.0446 10.1875 11.8125V3.98913L10.0842 3.9375H3.29075ZM1.875 3.0625V2.1875H11.5V3.0625H1.875Z" fill="#DC3545"/>
</g>
</g>
</svg>
