<svg width="32" height="32" viewBox="0 0 32 32" fill="none" xmlns="http://www.w3.org/2000/svg">
<g id="file-pdf-fill">
<g id="Vector">
<path d="M11.046 20.848C11.326 20.684 11.632 20.524 11.964 20.372C11.6835 20.7901 11.3832 21.1946 11.064 21.584C10.504 22.258 10.068 22.616 9.794 22.728C9.77125 22.7376 9.74786 22.7456 9.724 22.752C9.70404 22.7243 9.68663 22.6948 9.672 22.664C9.56 22.444 9.564 22.232 9.752 21.944C9.964 21.614 10.39 21.236 11.046 20.848ZM15.956 17.554C15.718 17.604 15.482 17.654 15.244 17.71C15.5966 17.0193 15.9301 16.3191 16.244 15.61C16.56 16.1959 16.9003 16.7684 17.264 17.326C16.83 17.39 16.392 17.466 15.956 17.554ZM21.006 19.432C20.6954 19.1814 20.4045 18.9073 20.136 18.612C20.592 18.622 21.004 18.656 21.36 18.72C21.994 18.834 22.292 19.014 22.396 19.138C22.4288 19.1726 22.4473 19.2183 22.448 19.266C22.441 19.4071 22.3998 19.5444 22.328 19.666C22.2877 19.7634 22.2229 19.8489 22.14 19.914C22.0987 19.9393 22.0501 19.9499 22.002 19.944C21.822 19.938 21.486 19.812 21.006 19.432ZM16.556 9.94C16.476 10.428 16.34 10.988 16.156 11.598C16.0882 11.3696 16.0288 11.1388 15.978 10.906C15.826 10.2 15.804 9.646 15.886 9.262C15.962 8.908 16.106 8.766 16.278 8.696C16.3702 8.65534 16.468 8.62839 16.568 8.616C16.594 8.676 16.624 8.8 16.632 9.012C16.642 9.256 16.618 9.566 16.556 9.942V9.94Z" fill="#212529"/>
<path fill-rule="evenodd" clip-rule="evenodd" d="M8 0H24C25.0609 0 26.0783 0.421427 26.8284 1.17157C27.5786 1.92172 28 2.93913 28 4V28C28 29.0609 27.5786 30.0783 26.8284 30.8284C26.0783 31.5786 25.0609 32 24 32H8C6.93913 32 5.92172 31.5786 5.17157 30.8284C4.42143 30.0783 4 29.0609 4 28V4C4 2.93913 4.42143 1.92172 5.17157 1.17157C5.92172 0.421427 6.93913 0 8 0ZM8.33 23.336C8.51 23.696 8.79 24.022 9.206 24.174C9.62 24.324 10.03 24.254 10.366 24.114C11.002 23.854 11.636 23.242 12.218 22.542C12.884 21.74 13.584 20.688 14.26 19.522C15.565 19.1351 16.9015 18.8634 18.254 18.71C18.854 19.476 19.474 20.136 20.074 20.61C20.634 21.05 21.28 21.416 21.942 21.444C22.3026 21.4619 22.6596 21.3652 22.962 21.168C23.272 20.966 23.502 20.674 23.67 20.336C23.85 19.974 23.96 19.596 23.946 19.21C23.9333 18.8294 23.7924 18.4643 23.546 18.174C23.094 17.634 22.354 17.374 21.626 17.244C20.7429 17.1072 19.8469 17.0737 18.956 17.144C18.2037 16.0805 17.5478 14.952 16.996 13.772C17.496 12.452 17.87 11.204 18.036 10.184C18.108 9.748 18.146 9.332 18.132 8.956C18.1295 8.58277 18.0427 8.21494 17.878 7.88C17.7831 7.69515 17.6483 7.53374 17.4833 7.40748C17.3183 7.28122 17.1272 7.19326 16.924 7.15C16.52 7.064 16.104 7.15 15.722 7.304C14.968 7.604 14.57 8.244 14.42 8.95C14.274 9.63 14.34 10.422 14.512 11.222C14.688 12.034 14.988 12.918 15.372 13.812C14.7577 15.3396 14.0483 16.8272 13.248 18.266C12.2173 18.5903 11.2238 19.0227 10.284 19.556C9.544 19.996 8.886 20.516 8.49 21.13C8.07 21.782 7.94 22.558 8.33 23.336Z" fill="#212529"/>
</g>
</g>
</svg>
