<svg width="30" height="30" viewBox="0 0 30 30" fill="none" xmlns="http://www.w3.org/2000/svg">
<g clip-path="url(#clip0_122_4207)">
<rect width="30" height="30" fill="white" fill-opacity="0.01"/>
<g clip-path="url(#clip1_122_4207)">
<path d="M11.25 10.4377C11.25 11.1837 10.9537 11.899 10.4262 12.4265C9.89879 12.9539 9.18342 13.2502 8.4375 13.2502C7.69158 13.2502 6.97621 12.9539 6.44876 12.4265C5.92132 11.899 5.625 11.1837 5.625 10.4377C5.625 9.69182 5.92132 8.97645 6.44876 8.44901C6.97621 7.92156 7.69158 7.62524 8.4375 7.62524C9.18342 7.62524 9.89879 7.92156 10.4262 8.44901C10.9537 8.97645 11.25 9.69182 11.25 10.4377Z" fill="#DC3545"/>
<path d="M3.75 2.00024C2.75544 2.00024 1.80161 2.39533 1.09835 3.09859C0.395088 3.80186 0 4.75568 0 5.75024V24.5002C0 25.4948 0.395088 26.4486 1.09835 27.1519C1.80161 27.8552 2.75544 28.2502 3.75 28.2502H26.25C27.2446 28.2502 28.1984 27.8552 28.9017 27.1519C29.6049 26.4486 30 25.4948 30 24.5002V5.75024C30 4.75568 29.6049 3.80186 28.9017 3.09859C28.1984 2.39533 27.2446 2.00024 26.25 2.00024H3.75ZM26.25 3.87524C26.7473 3.87524 27.2242 4.07279 27.5758 4.42442C27.9275 4.77605 28.125 5.25296 28.125 5.75024V17.9377L21.0431 14.2871C20.8673 14.199 20.6682 14.1685 20.4741 14.1998C20.2799 14.2311 20.1005 14.3226 19.9613 14.4615L13.005 21.4177L8.0175 18.0952C7.83742 17.9754 7.62143 17.9214 7.40613 17.9426C7.19084 17.9638 6.9895 18.0588 6.83625 18.2115L1.875 22.6252V5.75024C1.875 5.25296 2.07254 4.77605 2.42418 4.42442C2.77581 4.07279 3.25272 3.87524 3.75 3.87524H26.25Z" fill="#DC3545"/>
</g>
</g>
<defs>
<clipPath id="clip0_122_4207">
<rect width="30" height="30" fill="white"/>
</clipPath>
<clipPath id="clip1_122_4207">
<rect width="30" height="30" fill="white"/>
</clipPath>
</defs>
</svg>
