<svg width="16" height="16" viewBox="0 0 16 16" fill="none" xmlns="http://www.w3.org/2000/svg">
<rect width="16" height="16" fill="white" fill-opacity="0.01"/>
<g clip-path="url(#clip0_451_4031)">
<rect width="14" height="14" transform="translate(1 1)" fill="white" fill-opacity="0.01"/>
<path d="M5.12566 6.72341L3.92516 7.92391C3.43284 8.41623 3.15625 9.08397 3.15625 9.78022C3.15625 10.4765 3.43284 11.1442 3.92516 11.6365C4.41748 12.1289 5.08522 12.4054 5.78147 12.4054C6.47772 12.4054 7.14546 12.1289 7.63778 11.6365L9.23729 10.0362C9.53417 9.73923 9.75549 9.37542 9.88268 8.97526C10.0099 8.5751 10.0392 8.15027 9.96823 7.73643C9.89725 7.32258 9.72804 6.9318 9.47479 6.59689C9.22154 6.26197 8.89164 5.9927 8.51279 5.81166L8.00004 6.32441C7.94798 6.37656 7.90271 6.43506 7.86528 6.49853C8.158 6.58268 8.42368 6.74177 8.63607 6.96006C8.84845 7.17835 9.00019 7.4483 9.07629 7.74321C9.15238 8.03811 9.15019 8.34777 9.06993 8.64158C8.98967 8.93538 8.83412 9.20315 8.61866 9.41841L7.02004 11.0179C6.69166 11.3463 6.2463 11.5308 5.78191 11.5308C5.31752 11.5308 4.87216 11.3463 4.54378 11.0179C4.21541 10.6895 4.03094 10.2442 4.03094 9.77978C4.03094 9.3154 4.21541 8.87003 4.54378 8.54166L5.23766 7.84866C5.13976 7.4818 5.10194 7.10237 5.12566 6.72341Z" fill="#6C757D"/>
<path d="M6.76278 5.08716C6.4659 5.38408 6.24458 5.7479 6.11739 6.14806C5.99021 6.54822 5.96087 6.97305 6.03184 7.38689C6.10282 7.80073 6.27203 8.19151 6.52528 8.52643C6.77853 8.86135 7.10843 9.13062 7.48728 9.31166L8.16541 8.63266C7.86874 8.55308 7.59824 8.39683 7.38109 8.17959C7.16394 7.96235 7.0078 7.69178 6.92834 7.39508C6.84889 7.09837 6.84893 6.78598 6.92846 6.4893C7.00799 6.19262 7.16421 5.92209 7.38141 5.70491L8.98004 4.10541C9.30841 3.77704 9.75377 3.59256 10.2182 3.59256C10.6825 3.59256 11.1279 3.77704 11.4563 4.10541C11.7847 4.43378 11.9691 4.87915 11.9691 5.34353C11.9691 5.80792 11.7847 6.25329 11.4563 6.58166L10.7624 7.27466C10.8604 7.64216 10.898 8.02278 10.8744 8.40078L12.0749 7.20028C12.5672 6.70796 12.8438 6.04022 12.8438 5.34397C12.8438 4.64772 12.5672 3.97998 12.0749 3.48766C11.5826 2.99534 10.9148 2.71875 10.2186 2.71875C9.52235 2.71875 8.85461 2.99534 8.36228 3.48766L6.76278 5.08716Z" fill="#6C757D"/>
</g>
<defs>
<clipPath id="clip0_451_4031">
<rect width="14" height="14" fill="white" transform="translate(1 1)"/>
</clipPath>
</defs>
</svg>
