<svg width="16" height="16" viewBox="0 0 16 16" fill="none" xmlns="http://www.w3.org/2000/svg">
<g clip-path="url(#clip0_483_3493)">
<rect width="16" height="16" fill="white" fill-opacity="0.01"/>
<g clip-path="url(#clip1_483_3493)">
<path d="M11 6.49927C11 6.36666 11.0527 6.23948 11.1464 6.14571C11.2402 6.05195 11.3674 5.99927 11.5 5.99927H12.5C12.6326 5.99927 12.7598 6.05195 12.8536 6.14571C12.9473 6.23948 13 6.36666 13 6.49927V7.49927C13 7.63188 12.9473 7.75905 12.8536 7.85282C12.7598 7.94659 12.6326 7.99927 12.5 7.99927H11.5C11.3674 7.99927 11.2402 7.94659 11.1464 7.85282C11.0527 7.75905 11 7.63188 11 7.49927V6.49927Z" fill="#212529"/>
<path d="M3.5 -0.000732422C3.63261 -0.000732422 3.75979 0.051946 3.85355 0.145714C3.94732 0.239482 4 0.366659 4 0.499268V0.999268H12V0.499268C12 0.366659 12.0527 0.239482 12.1464 0.145714C12.2402 0.051946 12.3674 -0.000732422 12.5 -0.000732422C12.6326 -0.000732422 12.7598 0.051946 12.8536 0.145714C12.9473 0.239482 13 0.366659 13 0.499268V0.999268H14C14.5304 0.999268 15.0391 1.20998 15.4142 1.58505C15.7893 1.96013 16 2.46883 16 2.99927V13.9993C16 14.5297 15.7893 15.0384 15.4142 15.4135C15.0391 15.7886 14.5304 15.9993 14 15.9993H2C1.46957 15.9993 0.960859 15.7886 0.585786 15.4135C0.210714 15.0384 0 14.5297 0 13.9993V2.99927C0 2.46883 0.210714 1.96013 0.585786 1.58505C0.960859 1.20998 1.46957 0.999268 2 0.999268H3V0.499268C3 0.366659 3.05268 0.239482 3.14645 0.145714C3.24021 0.051946 3.36739 -0.000732422 3.5 -0.000732422ZM1 3.99927V13.9993C1 14.2645 1.10536 14.5188 1.29289 14.7064C1.48043 14.8939 1.73478 14.9993 2 14.9993H14C14.2652 14.9993 14.5196 14.8939 14.7071 14.7064C14.8946 14.5188 15 14.2645 15 13.9993V3.99927H1Z" fill="#212529"/>
</g>
</g>
<defs>
<clipPath id="clip0_483_3493">
<rect width="16" height="16" fill="white"/>
</clipPath>
<clipPath id="clip1_483_3493">
<rect width="16" height="16" fill="white"/>
</clipPath>
</defs>
</svg>
