<svg width="12" height="13" viewBox="0 0 12 13" fill="none" xmlns="http://www.w3.org/2000/svg">
<g id="icon-wrapper">
<g id="Union">
<path d="M4.5 3.87415C4.5 4.17251 4.38147 4.45866 4.1705 4.66964C3.95952 4.88062 3.67337 4.99915 3.375 4.99915C3.07663 4.99915 2.79048 4.88062 2.57951 4.66964C2.36853 4.45866 2.25 4.17251 2.25 3.87415C2.25 3.57578 2.36853 3.28963 2.57951 3.07865C2.79048 2.86767 3.07663 2.74915 3.375 2.74915C3.67337 2.74915 3.95952 2.86767 4.1705 3.07865C4.38147 3.28963 4.5 3.57578 4.5 3.87415ZM3.75 3.87415C3.75 3.77469 3.71049 3.67931 3.64017 3.60898C3.56984 3.53865 3.47446 3.49915 3.375 3.49915C3.27554 3.49915 3.18016 3.53865 3.10984 3.60898C3.03951 3.67931 3 3.77469 3 3.87415C3 3.9736 3.03951 4.06898 3.10984 4.13931C3.18016 4.20964 3.27554 4.24915 3.375 4.24915C3.47446 4.24915 3.56984 4.20964 3.64017 4.13931C3.71049 4.06898 3.75 3.9736 3.75 3.87415Z" fill="#212529"/>
<path d="M1.5 1.24915H4.9395C5.1384 1.24919 5.32913 1.32823 5.46975 1.4689L10.7198 6.7189C10.8604 6.85954 10.9393 7.05027 10.9393 7.24915C10.9393 7.44802 10.8604 7.63875 10.7198 7.7794L7.28025 11.2189C7.1396 11.3595 6.94887 11.4385 6.75 11.4385C6.55113 11.4385 6.3604 11.3595 6.21975 11.2189L0.96975 5.9689C0.829088 5.82828 0.750042 5.63754 0.75 5.43865V1.99915C0.75 1.80023 0.829018 1.60947 0.96967 1.46882C1.11032 1.32816 1.30109 1.24915 1.5 1.24915ZM1.5 5.43865L6.75 10.6886L10.1895 7.24915L4.9395 1.99915H1.5V5.43865Z" fill="#212529"/>
</g>
</g>
</svg>
