<svg width="16" height="16" viewBox="0 0 16 16" fill="none" xmlns="http://www.w3.org/2000/svg">
<g id="icon-wrapper" clip-path="url(#clip0_451_4056)">
<g id="Union">
<path d="M14 0.999146C14.2652 0.999146 14.5196 1.1045 14.7071 1.29204C14.8946 1.47958 15 1.73393 15 1.99915V13.9991C15 14.2644 14.8946 14.5187 14.7071 14.7063C14.5196 14.8938 14.2652 14.9991 14 14.9991H2C1.73478 14.9991 1.48043 14.8938 1.29289 14.7063C1.10536 14.5187 1 14.2644 1 13.9991V1.99915C1 1.73393 1.10536 1.47958 1.29289 1.29204C1.48043 1.1045 1.73478 0.999146 2 0.999146H14ZM2 -0.000854492C1.46957 -0.000854492 0.960859 0.209859 0.585786 0.584932C0.210714 0.960005 0 1.46871 0 1.99915V13.9991C0 14.5296 0.210714 15.0383 0.585786 15.4134C0.960859 15.7884 1.46957 15.9991 2 15.9991H14C14.5304 15.9991 15.0391 15.7884 15.4142 15.4134C15.7893 15.0383 16 14.5296 16 13.9991V1.99915C16 1.46871 15.7893 0.960005 15.4142 0.584932C15.0391 0.209859 14.5304 -0.000854492 14 -0.000854492H2Z" fill="#212529"/>
<path d="M8 3.99915C8.13261 3.99915 8.25979 4.05182 8.35355 4.14559C8.44732 4.23936 8.5 4.36654 8.5 4.49915V7.49915H11.5C11.6326 7.49915 11.7598 7.55182 11.8536 7.64559C11.9473 7.73936 12 7.86654 12 7.99915C12 8.13175 11.9473 8.25893 11.8536 8.3527C11.7598 8.44647 11.6326 8.49915 11.5 8.49915H8.5V11.4991C8.5 11.6318 8.44732 11.7589 8.35355 11.8527C8.25979 11.9465 8.13261 11.9991 8 11.9991C7.86739 11.9991 7.74021 11.9465 7.64645 11.8527C7.55268 11.7589 7.5 11.6318 7.5 11.4991V8.49915H4.5C4.36739 8.49915 4.24021 8.44647 4.14645 8.3527C4.05268 8.25893 4 8.13175 4 7.99915C4 7.86654 4.05268 7.73936 4.14645 7.64559C4.24021 7.55182 4.36739 7.49915 4.5 7.49915H7.5V4.49915C7.5 4.36654 7.55268 4.23936 7.64645 4.14559C7.74021 4.05182 7.86739 3.99915 8 3.99915Z" fill="#212529"/>
</g>
</g>
<defs>
<clipPath id="clip0_451_4056">
<rect width="16" height="16" fill="white"/>
</clipPath>
</defs>
</svg>
