<svg width="16" height="16" viewBox="0 0 16 16" fill="none" xmlns="http://www.w3.org/2000/svg">
<g id="icon-wrapper">
<g id="Vector">
<path d="M6.5 9.438V8.5H5.5V9.438C5.49999 9.51992 5.48992 9.60153 5.47 9.681L5.07 11.279L6 11.899L6.93 11.279L6.53 9.681C6.51008 9.60153 6.50001 9.51992 6.5 9.438Z" fill="#212529"/>
<path d="M2 0H10C10.5304 0 11.0391 0.210714 11.4142 0.585786C11.7893 0.960859 12 1.46957 12 2V14C12 14.5304 11.7893 15.0391 11.4142 15.4142C11.0391 15.7893 10.5304 16 10 16H2C1.46957 16 0.960859 15.7893 0.585786 15.4142C0.210714 15.0391 0 14.5304 0 14V2C0 1.46957 0.210714 0.960859 0.585786 0.585786C0.960859 0.210714 1.46957 0 2 0ZM4.5 8.5V9.438L4.1 11.037C4.05016 11.2371 4.06339 11.4476 4.13785 11.6399C4.21232 11.8322 4.3444 11.9967 4.516 12.111L5.446 12.731C5.61023 12.8404 5.80316 12.8988 6.0005 12.8988C6.19784 12.8988 6.39077 12.8404 6.555 12.731L7.485 12.111C7.65642 11.9966 7.78829 11.832 7.86258 11.6397C7.93687 11.4475 7.94994 11.237 7.9 11.037L7.5 9.438V8.5C7.5 8.23478 7.39464 7.98043 7.20711 7.79289C7.01957 7.60536 6.76522 7.5 6.5 7.5H5.5C5.23478 7.5 4.98043 7.60536 4.79289 7.79289C4.60536 7.98043 4.5 8.23478 4.5 8.5ZM5.5 3H4.5V4H5.5V5H4.5V6H5.5V7H7V6H6V5H7V4H6V3H7V2H6V1H4.5V2H5.5V3Z" fill="#212529"/>
</g>
</g>
</svg>
