<svg width="32" height="23" viewBox="0 0 32 23" fill="none" xmlns="http://www.w3.org/2000/svg">
<path fill-rule="evenodd" clip-rule="evenodd" d="M27.5167 18.6907C30.1917 16.4152 32 13.5389 32 11.5C32 9.46076 30.1946 6.58432 27.5224 4.30962C24.3668 1.62344 20.3644 0 16 0C11.6362 0 7.63417 1.62595 4.47717 4.31568C1.80663 6.59096 0 9.46739 0 11.5C0 13.5323 1.80948 16.4086 4.4828 18.6846C7.64141 21.3739 11.6424 23 16 23C20.3582 23 24.3595 21.3764 27.5167 18.6907ZM6.38154 16.5065C4.28668 14.7229 2.90909 12.5331 2.90909 11.5C2.90909 10.4654 4.28422 8.27595 6.37666 6.49321C9.02963 4.2329 12.3719 2.875 16 2.875C19.6295 2.875 22.9724 4.2309 25.6238 6.48795C27.7174 8.27008 29.0909 10.4584 29.0909 11.5C29.0909 12.5401 27.7149 14.7288 25.6189 16.5117C22.9656 18.7688 19.6233 20.125 16 20.125C12.3781 20.125 9.03641 18.7668 6.38154 16.5065ZM16 5.75C19.2133 5.75 21.8182 8.32436 21.8182 11.5C21.8182 14.6756 19.2133 17.25 16 17.25C12.7867 17.25 10.1818 14.6756 10.1818 11.5C10.1818 8.32436 12.7867 5.75 16 5.75ZM16 8.625C14.3934 8.625 13.0909 9.91218 13.0909 11.5C13.0909 13.0878 14.3934 14.375 16 14.375C17.6066 14.375 18.9091 13.0878 18.9091 11.5C18.7608 11.5 18.4359 11.5 18.1818 11.5C16.9768 11.5 16 10.5346 16 9.34375C16 9.09268 16 8.70844 16 8.625Z" fill="#AFAFAF"/>
</svg>
