<svg width="16" height="17" viewBox="0 0 16 17" fill="none" xmlns="http://www.w3.org/2000/svg">
<g id="icon-wrapper">
<path id="Union" d="M7.24652 11.6392L2.45052 6.15718C1.88452 5.51218 2.34452 4.49918 3.20352 4.49918H12.7955C12.9878 4.49901 13.176 4.55426 13.3376 4.65832C13.4993 4.76237 13.6275 4.91081 13.707 5.08587C13.7864 5.26093 13.8137 5.45517 13.7856 5.64535C13.7575 5.83553 13.6752 6.01358 13.5485 6.15818L8.75252 11.6382C8.65866 11.7456 8.54291 11.8317 8.41303 11.8907C8.28316 11.9496 8.14216 11.9802 7.99952 11.9802C7.85688 11.9802 7.71589 11.9496 7.58601 11.8907C7.45614 11.8317 7.34038 11.7456 7.24652 11.6382V11.6392Z" fill="white"/>
</g>
</svg>
