<svg width="210" height="24" viewBox="0 0 210 24" fill="none" xmlns="http://www.w3.org/2000/svg">
<rect width="210" height="24" fill="#F5F5F5"/>
<g id="Sign in" clip-path="url(#clip0_0_1)">
<rect width="1520" height="1000" transform="translate(-131 -90)" fill="white"/>
<g id="left">
<rect width="760" height="1000" transform="translate(-131 -90)" fill="white"/>
<g id="full color logo">
<path id="Pixelbuddha" fill-rule="evenodd" clip-rule="evenodd" d="M45.4161 15.3698C46.316 15.4355 47.2196 15.3142 48.0716 15.0135C48.9236 14.7128 49.706 14.239 50.3708 13.6211C50.9963 12.955 51.4764 12.163 51.7802 11.2966C52.084 10.4303 52.2046 9.50892 52.1342 8.59231C52.1941 7.68937 52.06 6.78397 51.741 5.93864C51.422 5.0933 50.9259 4.3282 50.2867 3.69597C49.6081 3.06656 48.8116 2.58153 47.9445 2.26978C47.0774 1.95803 46.1574 1.82585 45.2389 1.88104H36.9999V22.0527H42.1597V15.3698H45.4161ZM42.1597 6.11576H43.9234C44.3212 6.08268 44.7215 6.12997 45.1011 6.25491C45.4807 6.37986 45.832 6.57999 46.1346 6.84362C46.3489 7.09033 46.512 7.37803 46.6146 7.68975C46.7172 8.00148 46.7572 8.33096 46.7319 8.65855C46.763 8.9963 46.7196 9.33686 46.605 9.65561C46.4905 9.97436 46.3074 10.2633 46.0692 10.5017C45.439 10.9619 44.6706 11.1858 43.8954 11.1351H42.1597V6.11576ZM54.4297 8.53566V22.0527H59.2069V8.53566H54.4297ZM54.1311 2.91133C54.1311 3.44976 54.2887 3.97615 54.5839 4.42383C54.8792 4.87152 55.2989 5.22039 55.7899 5.42643C56.2809 5.63248 56.8213 5.68644 57.3426 5.5814C57.8639 5.47636 58.3427 5.21707 58.7185 4.83634C59.0943 4.45562 59.3502 3.97054 59.4538 3.44246C59.5575 2.91438 59.5044 2.36706 59.301 1.86962C59.0976 1.37218 58.7531 0.947029 58.3112 0.647895C57.8693 0.348762 57.3497 0.189 56.8182 0.189C56.4649 0.187499 56.1148 0.256957 55.7881 0.393235C55.4614 0.529514 55.1645 0.730005 54.9147 0.983096C54.6649 1.23619 54.4672 1.5368 54.3327 1.86777C54.1982 2.19874 54.1296 2.55341 54.1311 2.91133ZM60.8211 22.0527H67.1567L70.5529 18.0354L73.9588 22.0527H80.2943L73.6041 14.7082L79.128 8.53566H72.9416L70.5903 11.3146L68.2856 8.53566H62.0808L67.4833 14.7082L60.8211 22.0527ZM94.9528 15.6723C95.0055 14.6286 94.8444 13.5851 94.4799 12.6074C94.1154 11.6298 93.5553 10.7391 92.8347 9.99127C91.4201 8.72652 89.5787 8.06297 87.6935 8.13861C86.7005 8.08395 85.7067 8.22965 84.7697 8.56716C83.8327 8.90467 82.971 9.42734 82.235 10.1048C81.5725 10.7979 81.0537 11.6182 80.7092 12.5176C80.3646 13.4169 80.2014 14.3771 80.229 15.3414C80.2069 16.2834 80.3694 17.2205 80.7073 18.0983C81.0453 18.9761 81.5518 19.7772 82.1976 20.4553C82.9367 21.1532 83.8062 21.6942 84.7549 22.0465C85.7035 22.3988 86.7123 22.5552 87.7215 22.5065C90.6234 22.5065 92.1721 21.599 93.1611 20.6348C93.9365 19.8727 94.4945 18.9126 94.7756 17.8558H90.2034C90.0096 18.2297 89.7195 18.5433 89.3637 18.7632C88.8786 18.9935 88.3504 19.1159 87.8147 19.1224C87.4596 19.15 87.1028 19.1058 86.7648 18.9922C86.4267 18.8786 86.1144 18.6979 85.846 18.4608C85.3028 17.8334 85.0041 17.0267 85.0061 16.1922H94.9528V15.6723ZM85.1556 13.4037C85.2476 12.8599 85.4978 12.3563 85.8741 11.9575C86.1293 11.7053 86.4339 11.5103 86.7682 11.3849C87.1025 11.2595 87.4589 11.2066 87.8147 11.2296C88.5401 11.1993 89.2479 11.461 89.7836 11.9575C90.1656 12.3601 90.4333 12.8598 90.5581 13.4037H85.1556ZM97.696 -4.61549e-06V22.0527H102.473V-4.61549e-06H97.696ZM105.73 -4.61549e-06V22.0527H110.507V20.5782C110.981 21.1994 111.593 21.6981 112.294 22.0333C112.994 22.3685 113.763 22.5307 114.538 22.5065C115.404 22.532 116.267 22.3792 117.074 22.0576C117.88 21.7359 118.614 21.2519 119.231 20.6348C119.927 19.928 120.475 19.0869 120.844 18.1614C121.212 17.2359 121.394 16.2448 121.377 15.2469C121.391 14.2518 121.204 13.2642 120.828 12.3445C120.453 11.4247 119.897 10.5919 119.194 9.89677C117.91 8.70359 116.224 8.05418 114.482 8.08196C113.734 8.07156 112.993 8.223 112.307 8.5262C111.622 8.8294 111.008 9.27736 110.507 9.84011V-4.61549e-06H105.73ZM113.437 18.3946C112.623 18.3897 111.844 18.0608 111.268 17.4789C110.692 16.897 110.365 16.1089 110.358 15.2848C110.403 14.4751 110.719 13.7052 111.253 13.1012C111.823 12.5251 112.594 12.1992 113.398 12.1939C114.203 12.1886 114.978 12.5043 115.555 13.0728C116.142 13.6903 116.473 14.5126 116.479 15.3698C116.457 16.1712 116.125 16.9318 115.555 17.4872C115.28 17.7742 114.95 18.0023 114.587 18.1582C114.223 18.314 113.832 18.3944 113.437 18.3946ZM124.12 8.53566V16.9767C124.081 17.632 124.171 18.2887 124.388 18.9075C124.604 19.5263 124.942 20.0945 125.38 20.5782C126.957 22.2985 129.411 22.5065 131.408 22.5065C133.227 22.5065 135.532 22.3269 137.174 20.6066C137.631 20.1297 137.982 19.5587 138.203 18.9324C138.423 18.3061 138.508 17.6392 138.452 16.9767V8.53566H133.675V16.0977C133.699 16.4465 133.651 16.7965 133.534 17.1253C133.416 17.4541 133.233 17.7545 132.994 18.0071C132.763 18.215 132.492 18.3726 132.198 18.4702C131.905 18.5677 131.594 18.6031 131.286 18.5742C130.687 18.618 130.092 18.4362 129.616 18.0638C129.368 17.8045 129.177 17.4958 129.053 17.1573C128.929 16.8188 128.876 16.458 128.898 16.0977V8.53566H124.12ZM156.852 -4.61549e-06H152.066V9.84011C151.567 9.27746 150.955 8.82944 150.271 8.5262C149.587 8.22295 148.847 8.07151 148.1 8.08196C146.356 8.05618 144.667 8.70516 143.379 9.89677C142.679 10.594 142.126 11.4274 141.752 12.3468C141.379 13.2662 141.193 14.2527 141.205 15.2469C141.188 16.2448 141.37 17.2359 141.739 18.1614C142.107 19.0869 142.655 19.928 143.351 20.6348C143.966 21.2517 144.698 21.7357 145.503 22.0574C146.309 22.3792 147.17 22.532 148.035 22.5065C148.81 22.5315 149.579 22.3697 150.28 22.0345C150.981 21.6992 151.593 21.2001 152.066 20.5782V22.0527H156.852V-4.61549e-06ZM149.145 18.3946C148.75 18.3961 148.359 18.3165 147.995 18.1606C147.631 18.0046 147.302 17.7756 147.027 17.4872C146.742 17.2138 146.512 16.886 146.352 16.5227C146.192 16.1593 146.105 15.7676 146.094 15.3698C146.099 14.5105 146.434 13.6866 147.027 13.0728C147.603 12.5044 148.376 12.1886 149.179 12.1939C149.983 12.1992 150.752 12.5252 151.319 13.1012C151.857 13.7028 152.174 14.4741 152.215 15.2848C152.206 15.7163 152.112 16.1417 151.939 16.536C151.766 16.9304 151.518 17.2858 151.207 17.5817C150.634 18.0864 149.905 18.3737 149.145 18.3946ZM175.243 -4.61549e-06H170.466V9.84011C169.964 9.27818 169.351 8.83072 168.665 8.52758C167.98 8.22445 167.239 8.0726 166.491 8.08196C164.747 8.05618 163.058 8.70516 161.77 9.89677C161.07 10.594 160.517 11.4274 160.143 12.3468C159.769 13.2662 159.583 14.2527 159.596 15.2469C159.579 16.2448 159.761 17.2359 160.129 18.1614C160.498 19.0869 161.046 19.928 161.742 20.6348C162.358 21.2519 163.092 21.7359 163.899 22.0576C164.706 22.3792 165.568 22.532 166.435 22.5065C167.209 22.5307 167.979 22.3685 168.679 22.0333C169.38 21.6981 169.992 21.1994 170.466 20.5782V22.0527H175.243V-4.61549e-06ZM167.536 18.3946C167.141 18.3961 166.749 18.3165 166.385 18.1606C166.021 18.0046 165.692 17.7756 165.418 17.4872C164.847 16.9318 164.516 16.1712 164.494 15.3698C164.497 14.5118 164.828 13.6881 165.418 13.0728C165.995 12.5043 166.77 12.1886 167.574 12.1939C168.379 12.1992 169.15 12.5251 169.719 13.1012C170.254 13.7052 170.569 14.4751 170.615 15.2848C170.604 15.7169 170.509 16.1424 170.335 16.5367C170.16 16.9311 169.91 17.2863 169.598 17.5817C169.025 18.0864 168.296 18.3737 167.536 18.3946ZM178.528 22.0527H183.305V14.7932C183.281 14.3898 183.339 13.9857 183.478 13.6066C183.616 13.2274 183.83 12.8815 184.107 12.5907C184.597 12.1905 185.214 11.9854 185.843 12.0141C186.123 11.9887 186.405 12.0274 186.668 12.1272C186.931 12.227 187.169 12.3853 187.364 12.5907C187.853 13.372 188.064 14.2993 187.961 15.2185V22.0527H192.738V13.4699C192.816 12.7853 192.744 12.092 192.528 11.4387C192.312 10.7854 191.957 10.1881 191.488 9.68884C190.962 9.18829 190.34 8.80122 189.662 8.55101C188.983 8.30079 188.262 8.19259 187.541 8.23311C186.585 8.20371 185.638 8.43212 184.798 8.89486C184.229 9.24995 183.724 9.7006 183.305 10.2276V-4.61549e-06H178.528V22.0527ZM205.223 9.84011C204.718 9.27456 204.1 8.82496 203.409 8.5217C202.719 8.21843 201.972 8.06854 201.22 8.08196C199.433 8.05807 197.709 8.74332 196.415 9.99127C195.731 10.7069 195.197 11.5542 194.843 12.4829C194.488 13.4117 194.322 14.4031 194.353 15.3982C194.325 16.3132 194.48 17.2244 194.809 18.0772C195.138 18.9299 195.633 19.7067 196.265 20.3608C196.868 21.0452 197.61 21.5908 198.439 21.9609C199.267 22.331 200.165 22.5171 201.071 22.5065C201.864 22.5432 202.655 22.3873 203.377 22.0519C204.099 21.7165 204.732 21.2112 205.223 20.5782V22.0527H210V8.53566H205.223V9.84011ZM202.293 12.1938C203.095 12.1883 203.866 12.5043 204.439 13.0728C204.737 13.3564 204.973 13.6993 205.134 14.0799C205.294 14.4606 205.375 14.8708 205.372 15.2848C205.377 15.69 205.301 16.0919 205.147 16.4659C204.993 16.8398 204.764 17.1778 204.476 17.4588C203.908 18.0465 203.133 18.3829 202.321 18.3946C201.522 18.3606 200.761 18.0389 200.175 17.4872C199.885 17.2 199.654 16.8575 199.496 16.4795C199.337 16.1015 199.254 15.6955 199.251 15.2848C199.268 14.4493 199.611 13.6544 200.203 13.0728C200.764 12.5216 201.511 12.2074 202.293 12.1938Z" fill="black"/>
<path id="sign" fill-rule="evenodd" clip-rule="evenodd" d="M15.4838 10.56H6.77417V1.92001H15.4838V10.56ZM21.7312 10.7665C20.5124 12.6483 18.8363 14.181 16.864 15.2173C14.8917 16.2536 12.6895 16.7586 10.469 16.6838C8.4574 16.691 6.47037 16.2362 4.65714 15.3538C2.84391 14.4714 1.25167 13.1842 0 11.5888C0.979721 16.6648 6.05566 24 14.9758 24C17.6029 23.9956 20.1838 23.2997 22.4656 21.9807C24.7474 20.6617 26.6517 18.7648 27.992 16.4758L21.7312 10.7665Z" fill="black"/>
</g>
</g>
</g>
<defs>
<clipPath id="clip0_0_1">
<rect width="1520" height="1000" fill="white" transform="translate(-131 -90)"/>
</clipPath>
</defs>
</svg>
