<svg width="16" height="16" viewBox="0 0 16 16" fill="none" xmlns="http://www.w3.org/2000/svg">
<g clip-path="url(#clip0_299_2929)">
<rect width="16" height="16" fill="white" fill-opacity="0.01"/>
<g clip-path="url(#clip1_299_2929)">
<path d="M8.98164 1.56516C8.88265 1.39272 8.73992 1.24946 8.56785 1.14983C8.39578 1.0502 8.20047 0.997742 8.00164 0.997742C7.80281 0.997742 7.6075 1.0502 7.43543 1.14983C7.26337 1.24946 7.12063 1.39272 7.02164 1.56516L0.164641 13.2322C-0.292359 14.0102 0.255641 14.9992 1.14464 14.9992H14.8576C15.7466 14.9992 16.2956 14.0092 15.8376 13.2322L8.98164 1.56516ZM7.99964 4.99916C8.53464 4.99916 8.95364 5.46116 8.89964 5.99416L8.54964 9.50116C8.53788 9.63893 8.47484 9.76727 8.373 9.86079C8.27115 9.95432 8.13791 10.0062 7.99964 10.0062C7.86137 10.0062 7.72813 9.95432 7.62629 9.86079C7.52444 9.76727 7.4614 9.63893 7.44964 9.50116L7.09964 5.99416C7.08707 5.86839 7.10099 5.74139 7.14049 5.62133C7.17999 5.50126 7.2442 5.39081 7.32898 5.29707C7.41377 5.20333 7.51725 5.1284 7.63276 5.07709C7.74827 5.02578 7.87325 4.99923 7.99964 4.99916ZM8.00164 10.9992C8.26686 10.9992 8.52121 11.1045 8.70875 11.2921C8.89628 11.4796 9.00164 11.7339 9.00164 11.9992C9.00164 12.2644 8.89628 12.5187 8.70875 12.7063C8.52121 12.8938 8.26686 12.9992 8.00164 12.9992C7.73642 12.9992 7.48207 12.8938 7.29453 12.7063C7.107 12.5187 7.00164 12.2644 7.00164 11.9992C7.00164 11.7339 7.107 11.4796 7.29453 11.2921C7.48207 11.1045 7.73642 10.9992 8.00164 10.9992Z" fill="#EE2B47"/>
</g>
</g>
<defs>
<clipPath id="clip0_299_2929">
<rect width="16" height="16" fill="white"/>
</clipPath>
<clipPath id="clip1_299_2929">
<rect width="16" height="16" fill="white"/>
</clipPath>
</defs>
</svg>
